<svg width="69" height="69" viewBox="0 0 69 69" fill="none" xmlns="http://www.w3.org/2000/svg">
<g clip-path="url(#clip0_7_2)">
<rect width="69" height="69" rx="24" fill="white"/>
<g opacity="0.8">
<path d="M0 0H69V69H0V0Z" fill="#19AA42"/>
<path d="M5.63429 6V12.2042H63.3657V6H5.63429ZM10.6515 18.6707V42.9008H58.3434V18.6707H10.6515ZM17.5649 24.8645H51.5038V36.7095H17.5674L17.5649 24.8645ZM21.7764 43.9297L15.3918 46.3424C18.0275 50.1004 20.1447 53.6089 21.7764 56.8653H4V63H65V56.8653H48.0268C50.1058 53.8404 52.0655 50.3242 53.8802 46.3424L46.9415 43.9297C45.2456 48.4323 43.1361 52.764 40.6407 56.8679H28.5678C26.57 51.8212 24.3054 47.5025 21.7764 43.9297Z" fill="#33C45C"/>
</g>
<path d="M17.1648 60V7.63636H36.8011C40.8239 7.63636 44.1989 8.33523 46.9261 9.73295C49.6705 11.1307 51.7415 13.0909 53.1392 15.6136C54.554 18.1193 55.2614 21.0426 55.2614 24.3835C55.2614 27.7415 54.5455 30.6562 53.1136 33.1278C51.6989 35.5824 49.6108 37.483 46.8494 38.8295C44.0881 40.1591 40.696 40.8239 36.6733 40.8239H22.6875V32.9489H35.3949C37.7472 32.9489 39.6733 32.625 41.1733 31.9773C42.6733 31.3125 43.7813 30.3494 44.4972 29.0881C45.2301 27.8097 45.5966 26.2415 45.5966 24.3835C45.5966 22.5256 45.2301 20.9403 44.4972 19.6278C43.7642 18.2983 42.6477 17.2926 41.1477 16.6108C39.6477 15.9119 37.7131 15.5625 35.3438 15.5625H26.6506V60H17.1648ZM44.2159 36.2727L57.179 60H46.5938L33.8608 36.2727H44.2159Z" fill="white"/>
</g>
<defs>
<clipPath id="clip0_7_2">
<rect width="69" height="69" rx="24" fill="white"/>
</clipPath>
</defs>
</svg>
